<svg xmlns="http://www.w3.org/2000/svg" viewBox="0 0 219.62 93.75"><defs><style>.cls-1{fill:#444;}</style></defs><title>logo_type</title><g id="レイヤー_2" data-name="レイヤー 2"><g id="レイヤー_1-2" data-name="レイヤー 1"><path class="cls-1" d="M22.45,82.51C12.54,82.45,5.58,79,0,71.46L4.65,66.6c5,6.51,10,9,17.73,9.1s13-2.76,13-7.08c0-3.52-1.89-4.67-11.22-6.89C8,58,4.72,55.8,4.77,48.3,4.82,40,11.61,35.16,23.09,35.24c8.56.06,13.17,2,18.31,7.62l-5,4.52c-3.92-4.12-6.84-5.28-13.71-5.32s-11.16,2.08-11.18,5.83c0,3.41,2,4.45,14.36,7.14s16.3,5.79,16.25,13.29C42.08,77.19,34.5,82.59,22.45,82.51Z"/><path class="cls-1" d="M72.41,82.86a23.64,23.64,0,0,1,.64-47.28c12.62.09,23,11,22.93,23.8A23.51,23.51,0,0,1,72.41,82.86ZM72.9,42.4A16.82,16.82,0,1,0,89.23,59.33C89.29,50.24,81.79,42.46,72.9,42.4Z"/><path class="cls-1" d="M99.76,93.71,112.27,0,119,.05l-12.5,93.7Z"/><path class="cls-1" d="M142.14,83.35a23.64,23.64,0,0,1,.65-47.28c12.61.09,23,11,22.93,23.79A23.53,23.53,0,0,1,142.14,83.35Zm.49-40.46A16.82,16.82,0,1,0,159,59.82C159,50.73,151.53,43,142.63,42.89Z"/><path class="cls-1" d="M219.5,61.94l-39.87-.27A16.69,16.69,0,0,0,196.09,76.9a16.86,16.86,0,0,0,14.81-8.77L217,70.9c-4.33,8.15-12,12.88-20.92,12.82A23.64,23.64,0,1,1,219.62,60,13.9,13.9,0,0,1,219.5,61.94ZM196.31,43.26c-7.32,0-13.32,4.34-16,11.6l31.76.21A16.68,16.68,0,0,0,196.31,43.26Z"/></g></g></svg>