<svg xmlns="http://www.w3.org/2000/svg" viewBox="0 0 390.5 93.75"><defs><style>.cls-1{fill:#444;}</style></defs><title>logo_set</title><g id="レイヤー_2" data-name="レイヤー 2"><g id="レイヤー_1-2" data-name="レイヤー 1"><path class="cls-1" d="M193.33,82.51c-9.91-.06-16.87-3.52-22.45-11.05l4.65-4.86c5,6.51,10,9,17.73,9.1s13-2.76,13-7.08c0-3.52-1.89-4.67-11.22-6.89C178.85,58,175.6,55.8,175.65,48.3c0-8.29,6.84-13.14,18.32-13.06,8.56.06,13.17,2,18.31,7.62l-5,4.52c-3.92-4.12-6.84-5.28-13.71-5.32s-11.16,2.08-11.18,5.83c0,3.41,2,4.45,14.36,7.14s16.3,5.79,16.25,13.29C213,77.19,205.38,82.59,193.33,82.51Z"/><path class="cls-1" d="M243.29,82.86a23.64,23.64,0,0,1,.64-47.28c12.62.09,23,11,22.93,23.8A23.51,23.51,0,0,1,243.29,82.86Zm.49-40.46a16.82,16.82,0,1,0,16.33,16.93C260.17,50.24,252.67,42.46,243.78,42.4Z"/><path class="cls-1" d="M270.64,93.71,283.14,0l6.76.05-12.5,93.7Z"/><path class="cls-1" d="M313,83.35a23.64,23.64,0,0,1,.65-47.28c12.61.09,23,11,22.93,23.79A23.53,23.53,0,0,1,313,83.35Zm.49-40.46a16.82,16.82,0,1,0,16.33,16.93C329.9,50.73,322.41,43,313.51,42.89Z"/><path class="cls-1" d="M390.37,61.94l-39.86-.27A16.69,16.69,0,0,0,367,76.9a16.86,16.86,0,0,0,14.81-8.77l6.06,2.77c-4.33,8.15-12,12.88-20.92,12.82A23.64,23.64,0,1,1,390.5,60,12.73,12.73,0,0,1,390.37,61.94ZM367.19,43.26c-7.32,0-13.32,4.34-16,11.6l31.76.21A16.68,16.68,0,0,0,367.19,43.26Z"/><rect class="cls-1" x="29.86" y="43.66" width="93.24" height="6.76" rx="0.49" ry="0.49" transform="translate(22.77 119) rotate(-84.86)"/><rect class="cls-1" y="0.55" width="6.76" height="92.98" rx="0.49" ry="0.49"/><rect class="cls-1" x="23.5" y="0.55" width="6.76" height="92.98" rx="0.49" ry="0.49"/><rect class="cls-1" x="47.82" y="0.55" width="6.76" height="92.98" rx="0.49" ry="0.49"/><rect class="cls-1" x="98.52" y="0.55" width="6.76" height="92.98" rx="0.49" ry="0.49"/><rect class="cls-1" x="123.65" y="0.55" width="6.76" height="92.98" rx="0.49" ry="0.49"/></g></g></svg>