<svg xmlns="http://www.w3.org/2000/svg" viewBox="0 0 144.3 144.3"><defs><style>.cls-1{fill:#fdfdfd;}.cls-1,.cls-2{stroke:#e6e6e6;}.cls-1,.cls-2,.cls-3,.cls-4{stroke-miterlimit:10;}.cls-1,.cls-4{stroke-width:0.3px;}.cls-2,.cls-3,.cls-4{fill:none;}.cls-2{stroke-width:0.2px;}.cls-3,.cls-4{stroke:#ccc;}.cls-3{stroke-width:0.1px;}.cls-5{fill:#ccc;}</style></defs><title>zemi_bg</title><g id="レイヤー_2" data-name="レイヤー 2"><g id="レイヤー_1-2" data-name="レイヤー 1"><rect class="cls-1" x="0.15" y="0.15" width="144" height="144"/><line class="cls-2" x1="81.15" y1="0.15" x2="81.15" y2="144.15"/><line class="cls-2" x1="90.15" y1="0.15" x2="90.15" y2="144.15"/><line class="cls-2" x1="99.15" y1="0.15" x2="99.15" y2="144.15"/><line class="cls-2" x1="108.15" y1="0.15" x2="108.15" y2="144.15"/><line class="cls-2" x1="117.15" y1="0.15" x2="117.15" y2="144.15"/><line class="cls-2" x1="126.15" y1="0.15" x2="126.15" y2="144.15"/><line class="cls-2" x1="135.15" y1="0.15" x2="135.15" y2="144.15"/><line class="cls-2" x1="54.15" y1="0.15" x2="54.15" y2="144.15"/><line class="cls-2" x1="63.15" y1="0.15" x2="63.15" y2="144.15"/><line class="cls-2" x1="36.15" y1="0.15" x2="36.15" y2="144.15"/><line class="cls-2" x1="45.15" y1="0.15" x2="45.15" y2="144.15"/><line class="cls-2" x1="18.15" y1="0.15" x2="18.15" y2="144.15"/><line class="cls-2" x1="27.15" y1="0.15" x2="27.15" y2="144.15"/><line class="cls-2" x1="9.15" y1="0.15" x2="9.15" y2="144.15"/><line class="cls-3" x1="144.15" y1="72.15" x2="0.15" y2="72.15"/><line class="cls-2" x1="144.15" y1="81.15" x2="0.15" y2="81.15"/><line class="cls-2" x1="144.15" y1="90.15" x2="0.15" y2="90.15"/><line class="cls-2" x1="144.15" y1="99.15" x2="0.15" y2="99.15"/><line class="cls-2" x1="144.15" y1="108.15" x2="0.15" y2="108.15"/><line class="cls-2" x1="144.15" y1="117.15" x2="0.15" y2="117.15"/><line class="cls-2" x1="144.15" y1="126.15" x2="0.15" y2="126.15"/><line class="cls-2" x1="144.15" y1="135.15" x2="0.15" y2="135.15"/><line class="cls-2" x1="144.15" y1="54.15" x2="0.15" y2="54.15"/><line class="cls-2" x1="144.15" y1="63.15" x2="0.15" y2="63.15"/><line class="cls-2" x1="144.15" y1="36.15" x2="0.15" y2="36.15"/><line class="cls-2" x1="144.15" y1="45.15" x2="0.15" y2="45.15"/><line class="cls-2" x1="144.15" y1="18.15" x2="0.15" y2="18.15"/><line class="cls-2" x1="144.15" y1="27.15" x2="0.15" y2="27.15"/><line class="cls-2" x1="144.15" y1="9.15" x2="0.15" y2="9.15"/><line class="cls-4" x1="72.15" y1="0.15" x2="72.15" y2="144.15"/><line class="cls-4" x1="0.15" y1="72.15" x2="144.15" y2="72.15"/><circle class="cls-5" cx="72.15" cy="72.15" r="1.55"/></g></g></svg>